<svg width="132" height="28" viewBox="0 0 132 28" fill="none" xmlns="http://www.w3.org/2000/svg">
<path d="M0.0032959 7.33314H2.3824V5.04762C2.3824 2.28699 3.90849 0.476562 6.95346 0.476562L8.47954 0.764503V3.52513L6.85988 3.23719C5.90607 3.23719 5.52815 3.81307 5.52815 4.76328V7.33314H8.57312V10.0938H5.52456V21.5214H2.47958V10.0938H0.0032959V7.33314ZM16.2863 7.0488C20.1915 7.0488 23.7152 10.0938 23.7152 14.4777C23.7152 18.8616 20.2887 21.9029 16.2863 21.9029C12.284 21.9029 8.86106 18.858 8.86106 14.4777C8.86106 10.0002 12.3811 7.0488 16.2863 7.0488ZM16.2863 19.1423C19.1441 19.1423 20.6666 17.0475 20.6666 14.4777C20.6666 11.9078 19.1441 9.80943 16.2863 9.80943C13.4285 9.80943 11.906 11.9042 11.906 14.4777C11.906 16.9504 13.4321 19.1423 16.2863 19.1423ZM32.3822 7.0488C36.2874 7.0488 39.8075 10.0938 39.8075 14.4777C39.8075 18.8616 36.381 21.9029 32.3822 21.9029C28.3834 21.9029 24.9533 18.858 24.9533 14.4777C25.0469 10.0002 28.477 7.0488 32.3822 7.0488ZM32.3822 19.1423C35.2364 19.1423 36.7625 17.0475 36.7625 14.4777C36.7625 11.9078 35.2364 9.80943 32.3822 9.80943C29.528 9.80943 28.0019 11.9042 28.0019 14.4777C28.0019 16.9504 29.5244 19.1423 32.3822 19.1423ZM55.619 21.5214H52.8548L52.5668 20.2869L52.3797 20.0961L52.1889 20.2869C51.2351 21.2371 49.8098 21.8093 48.2837 21.8093C44.3785 21.8093 41.0492 18.7608 41.0492 14.3805C41.0492 10.0002 44.3785 6.95162 48.2837 6.95162C49.8098 6.95162 51.3323 7.5275 52.1889 8.47771L52.3797 8.66847L52.5704 8.47771V0.573742H55.619V21.5214ZM48.4745 9.71585C45.6167 9.71585 44.0942 11.8106 44.0942 14.3805C44.0942 16.9504 45.6167 19.0487 48.4745 19.0487C51.0479 19.0487 52.8548 16.9504 52.8548 14.3805C52.8548 11.9042 51.0479 9.71585 48.4745 9.71585ZM58.664 7.33314H61.4282L61.7125 8.57129L61.9033 8.76205L62.0941 8.57129C63.0443 7.62108 64.4732 7.0488 65.9992 7.0488C69.9008 7.0488 73.2338 10.0938 73.2338 14.4777C73.2338 18.8616 69.9008 21.9029 65.9992 21.9029C64.4732 21.9029 62.9507 21.3342 62.0941 20.3804L61.9033 20.1897L61.7125 20.3804V28.0001H58.7612V7.33314H58.664ZM65.7113 19.1423C68.5691 19.1423 70.0916 17.0475 70.0916 14.4777C70.0916 11.9078 68.5691 9.80943 65.7113 9.80943C63.1414 9.80943 61.331 11.9042 61.331 14.4777C61.331 16.9504 63.1414 19.1423 65.7113 19.1423ZM80.7598 12.6672H83.2325V12.0014C83.2325 10.2845 82.0915 9.52509 80.4719 9.52509C79.1401 9.52509 78.2835 10.191 77.8084 11.4291L75.1414 10.8568C75.71 8.47771 77.8048 6.95162 80.569 6.95162C84.377 6.95162 86.2811 8.85923 86.2811 12.5701V21.4278H83.8048L83.5168 19.5202C82.5666 20.9527 81.0441 21.6186 79.043 21.6186C76.4731 21.6186 74.6627 20.0961 74.6627 17.2383C74.5691 14.4777 77.0454 12.6672 80.7598 12.6672ZM79.4281 19.1423C80.3783 19.1423 81.3285 18.8544 81.9979 18.1885C82.7574 17.5226 83.1389 16.666 83.1389 15.525V15.2371H80.569C78.7586 15.2371 77.6176 16.0937 77.6176 17.4291C77.6176 18.3793 78.2835 19.1423 79.4245 19.1423H79.4281ZM88.9481 7.33314H91.7087L91.9967 8.57129L92.1874 8.76205L92.3746 8.57129C92.9505 7.62108 94.473 7.0488 95.7111 7.0488C99.3284 7.0488 101.423 9.42791 101.423 12.7608V21.5214H98.3746V12.7608C98.281 10.8568 97.3308 9.71585 95.3296 9.71585C93.5192 9.71585 92.0903 11.1448 91.9967 12.9552V21.5214H88.9481V7.33314ZM117.706 21.5214H114.946L114.658 20.2869L114.47 20.0961L114.28 20.2869C113.326 21.2371 111.897 21.8093 110.374 21.8093C106.469 21.8093 103.14 18.7608 103.14 14.3805C103.14 10.0002 106.469 6.95162 110.374 6.95162C111.897 6.95162 113.423 7.5275 114.28 8.47771L114.47 8.66847L114.661 8.47771V0.573742H117.706V21.5214ZM110.659 9.71585C107.805 9.71585 106.279 11.8106 106.279 14.3805C106.279 16.9504 107.805 19.0487 110.659 19.0487C113.232 19.0487 115.043 16.9504 115.043 14.3805C115.043 11.9042 113.232 9.71585 110.659 9.71585ZM126.373 12.6672H128.849V12.0014C128.849 10.2845 127.708 9.52509 126.089 9.52509C124.757 9.52509 123.897 10.191 123.422 11.4291L120.758 10.8568C121.327 8.47771 123.422 6.95162 126.182 6.95162C129.994 6.95162 131.898 8.85923 131.898 12.5701V21.4278H129.422L129.134 19.5202C128.184 20.9527 126.658 21.6186 124.66 21.6186C122.086 21.6186 120.28 20.0961 120.28 17.2383C120.182 14.4777 122.565 12.6672 126.373 12.6672ZM125.041 19.1423C125.992 19.1423 126.945 18.8544 127.611 18.1885C128.374 17.5226 128.756 16.666 128.756 15.525V15.2371H126.182C124.372 15.2371 123.231 16.0937 123.231 17.4291C123.231 18.3793 123.897 19.1423 125.041 19.1423Z" fill="#D70F64"/>
</svg>
